<?xml version="1.0" encoding="UTF-8" standalone="no"?>
<!-- Created with Inkscape (http://www.inkscape.org/) -->

<svg
   width="1376.95"
   height="351"
   viewBox="0 0 364.318 92.86875"
   version="1.1"
   id="svg1"
   xml:space="preserve"
   sodipodi:docname="hkhcentre.svg"
   inkscape:version="1.3.2 (091e20e, 2023-11-25)"
   xmlns:inkscape="http://www.inkscape.org/namespaces/inkscape"
   xmlns:sodipodi="http://sodipodi.sourceforge.net/DTD/sodipodi-0.dtd"
   xmlns="http://www.w3.org/2000/svg"
   xmlns:svg="http://www.w3.org/2000/svg"><sodipodi:namedview
     id="namedview1"
     pagecolor="#ffffff"
     bordercolor="#000000"
     borderopacity="0.25"
     inkscape:showpageshadow="2"
     inkscape:pageopacity="0.0"
     inkscape:pagecheckerboard="0"
     inkscape:deskcolor="#d1d1d1"
     inkscape:document-units="mm"
     showgrid="false"
     inkscape:zoom="0.56428993"
     inkscape:cx="687.5898"
     inkscape:cy="379.23767"
     inkscape:window-width="1392"
     inkscape:window-height="811"
     inkscape:window-x="0"
     inkscape:window-y="1118"
     inkscape:window-maximized="0"
     inkscape:current-layer="svg1" /><defs
     id="defs1"><style
       id="style1">.cls-1,.cls-2{fill:#1d1d1b;stroke-width:0}.cls-2{fill:#b01c2e}</style></defs><g
     id="g1"
     transform="translate(0.46864762,-110.00465)"><g
       id="g287"
       transform="matrix(4,0,0,4,-185.13345,-320.59216)"><path
         id="path238"
         style="fill:#000000"
         d="m 129.11903,118.63414 c -0.41403,-0.0813 -0.47971,-0.13056 -0.96367,-0.72282 -0.35521,-0.43471 -0.59202,-0.83036 -0.74926,-1.25184 -0.51089,-1.36946 -0.39216,-1.513 0.47341,-0.57233 0.77746,0.84491 1.10669,0.99523 2.1495,0.9814 0.80419,-0.0107 1.92115,-0.17592 1.99483,-0.29514 0.0482,-0.078 -0.55725,-1.37252 -0.99777,-2.13321 -0.12928,-0.22324 -0.23506,-0.42212 -0.23506,-0.44195 0,-0.0198 0.13867,0.058 0.30815,0.17306 0.16948,0.11502 0.35282,0.20912 0.40741,0.20912 0.0546,0 0.18377,0.1143 0.28705,0.254 0.10329,0.1397 0.24434,0.254 0.31345,0.254 0.0691,0 0.3361,0.1714 0.5933,0.38089 0.2572,0.20949 0.62526,0.46131 0.81792,0.5596 0.43969,0.22431 1.25205,1.02798 1.25205,1.23864 0,0.21078 -0.44768,0.81064 -0.69322,0.92888 -0.10768,0.0519 -0.44343,0.13881 -0.74611,0.19326 -0.30268,0.0544 -0.7402,0.13553 -0.97226,0.1802 -0.63347,0.12193 -2.73373,0.16358 -3.23972,0.0642 z m -4.96024,-0.80816 c -0.086,-0.086 -0.0674,-0.67251 0.0341,-1.07023 0.0957,-0.37521 1.0247,-1.51035 1.14131,-1.39457 0.0338,0.0336 0.0181,0.2622 -0.0349,0.508 -0.053,0.2458 -0.13883,0.67551 -0.19073,0.95491 -0.1283,0.69081 -0.67951,1.27222 -0.94984,1.00189 z m 4.84216,-5.13409 c -0.30498,-0.15419 -0.36937,-0.2293 -0.3785,-0.44151 -0.0103,-0.23844 0.01,-0.25627 0.29791,-0.26382 0.29385,-0.008 0.92018,-0.26749 1.19332,-0.49496 0.0699,-0.0582 0.22225,-0.1287 0.33866,-0.15674 0.18899,-0.0455 0.538,-0.27523 1.75677,-1.15629 0.56361,-0.40744 0.69398,-0.41518 0.3599,-0.0214 -0.16298,0.19212 -0.37933,0.37404 -0.48076,0.40427 -0.10144,0.0302 -0.41682,0.30869 -0.70084,0.6188 -0.94099,1.02742 -1.17109,1.23913 -1.59692,1.4693 l -0.42204,0.22813 z m 6.70681,-2.1439 c -0.2062,-0.11841 -0.49555,-0.3073 -0.64299,-0.41976 -0.14744,-0.11246 -0.31575,-0.20447 -0.37401,-0.20447 -0.0583,0 -0.21414,-0.077 -0.34638,-0.17121 -0.18891,-0.13451 -0.31873,-0.16026 -0.60574,-0.12016 -0.40947,0.0572 -0.36183,-0.009 0.22737,-0.31412 0.18627,-0.0966 0.42736,-0.25695 0.53576,-0.35635 0.1472,-0.13497 0.29315,-0.17702 0.57643,-0.16606 0.20864,0.008 0.42475,0.0512 0.48024,0.0958 0.0555,0.0446 0.23425,0.10923 0.39724,0.14354 0.16298,0.0343 0.4534,0.15378 0.64537,0.26549 0.33801,0.19671 0.34837,0.21577 0.32786,0.60357 -0.0116,0.22025 -0.0258,0.42959 -0.0315,0.4652 -0.0155,0.0969 -0.54183,0.40077 -0.6877,0.39703 -0.0698,-0.002 -0.29571,-0.10014 -0.50192,-0.21855 z" /><path
         id="path233"
         style="fill:#000000"
         d="m 95.795163,120.61059 c -0.34001,-0.4632 -1.13794,-1.16637 -1.22524,-1.07975 -0.0322,0.032 -0.15529,0.23345 -0.2735,0.44772 -0.23175,0.42009 -0.31404,0.48143 -0.4935,0.36786 -0.16839,-0.10656 -0.42889,-1.27442 -0.33838,-1.517 0.0402,-0.10781 0.0731,-0.44609 0.0731,-0.75174 v -0.55573 l -0.40217,0.053 c -0.31549,0.0416 -0.46048,0.0174 -0.67273,-0.11205 -0.52044,-0.31745 -0.69001,-0.85045 -0.27056,-0.85045 0.10113,0 0.48365,-0.0994 0.85005,-0.22097 0.52161,-0.17302 0.67366,-0.26029 0.70062,-0.40217 0.29311,-1.54248 0.81469,-3.27289 1.11879,-3.7117 0.13623,-0.19659 0.19649,-0.35865 0.15023,-0.40408 -0.0456,-0.0448 -0.32016,-0.0239 -0.6699,0.0508 -0.32597,0.0696 -0.72602,0.14837 -0.889,0.17494 -0.37533,0.0612 -0.92869,0.43859 -1.28793,0.87835 -0.15312,0.18745 -0.38199,0.46284 -0.50859,0.61199 -0.12661,0.14916 -0.47737,0.75099 -0.77947,1.3374 l -0.54927,1.06622 0.3773,0.35958 c 0.41357,0.39416 0.4474,0.54281 0.28521,1.25328 -0.32145,1.40805 -0.55735,1.88504 -0.93228,1.88504 -0.22628,0 -0.32787,-0.0736 -0.70135,-0.508 -0.18723,-0.21777 -0.23682,-0.33732 -0.36302,-0.87504 -0.23396,-0.99687 -0.2335,-1.03608 0.0158,-1.36299 l 0.23032,-0.30197 h -0.22004 c -0.16741,0 -0.4078,0.19511 -1.00489,0.81558 -1.70847,1.7754 -1.69019,1.75882 -1.77416,1.60877 -0.0426,-0.0761 -0.15173,-0.13835 -0.24255,-0.13835 -0.0908,0 -0.16512,-0.0364 -0.16512,-0.0809 0,-0.12721 0.35304,-0.59649 0.83088,-1.10443 0.24095,-0.25612 0.43831,-0.51329 0.4386,-0.5715 2.9e-4,-0.0582 0.0595,-0.10583 0.13156,-0.10583 0.0721,0 0.23011,-0.10478 0.3512,-0.23284 0.53412,-0.56488 2.71073,-3.62975 2.63298,-3.70749 -0.0223,-0.0223 -0.30229,0.0782 -0.62225,0.22328 -0.79375,0.3599 -1.21225,0.31267 -1.67144,-0.18861 -0.39409,-0.43023 -0.38384,-0.61312 0.0352,-0.62767 0.16797,-0.006 0.4154,-0.0883 0.54985,-0.18335 0.13444,-0.095 0.52419,-0.31312 0.8661,-0.4847 0.34192,-0.17158 0.75544,-0.44575 0.91895,-0.60925 0.25886,-0.25886 0.33719,-0.2916 0.606,-0.25332 0.1698,0.0242 0.53016,0.068 0.8008,0.0974 0.62297,0.0676 0.68696,0.20349 0.29069,0.61737 -0.16404,0.17134 -0.47857,0.65443 -0.69894,1.07353 -0.34184,0.6501 -0.68402,1.22424 -1.09167,1.83165 -0.0511,0.0761 -0.3119,0.40742 -0.57966,0.73632 -0.47986,0.58943 -0.62618,0.93262 -0.35291,0.82776 0.0737,-0.0283 0.20569,-0.0514 0.29339,-0.0514 0.29296,0 0.71082,-0.48157 1.25953,-1.45159 0.47075,-0.8322 0.67631,-1.09226 1.5295,-1.93507 0.81349,-0.8036 1.15197,-1.0698 1.93781,-1.524 0.52369,-0.30269 1.09215,-0.64099 1.26324,-0.75179 0.47507,-0.30766 1.27054,-0.25626 2.23916,0.14467 0.44838,0.18559 0.53019,0.61307 0.14096,0.7366 -0.0888,0.0282 -0.16151,0.12076 -0.16151,0.2057 0,0.15765 -0.5248,0.42682 -0.8322,0.42682 -0.0833,0 -0.22449,0.0534 -0.31377,0.1187 -0.15899,0.11626 -0.15825,0.12687 0.036,0.51577 0.15276,0.30586 0.18476,0.4682 0.13935,0.70679 -0.0687,0.36071 -0.0671,0.7914 0.005,1.47983 l 0.0519,0.49275 0.35083,-0.0572 c 0.19296,-0.0315 0.46963,-0.12937 0.61483,-0.21758 0.28927,-0.17574 0.54738,-0.20304 0.77432,-0.0819 0.0809,0.0432 0.40419,0.19356 0.71852,0.33422 0.51394,0.22999 0.5715,0.28028 0.5715,0.49943 0,0.32464 -0.31269,0.61187 -0.66608,0.61187 -0.33388,0 -1.43698,0.23018 -1.63994,0.3422 -0.0809,0.0446 -0.24022,0.0811 -0.35413,0.0811 -0.25699,0 -0.3308,0.20198 -0.21727,0.59461 0.0468,0.16191 0.10952,0.85121 0.13933,1.53178 0.0637,1.45444 -0.0331,1.96236 -0.41143,2.15799 -0.41637,0.21531 -0.62027,0.15342 -0.943,-0.28622 z m 0.11318,-2.56149 c 0,-1.17791 -0.004,-1.18283 -0.707,-0.97833 -0.25413,0.0739 -0.53725,0.13432 -0.62916,0.13432 -0.28292,0 -0.39379,0.22955 -0.37241,0.77099 0.031,0.7837 0.10076,0.89439 0.62423,0.98973 0.24714,0.045 0.59222,0.0864 0.76684,0.0919 l 0.3175,0.0101 z m -5.66131,-0.67919 c 0.14571,-0.48633 0.0257,-0.79982 -0.30621,-0.79982 -0.20961,0 -0.26752,0.0501 -0.37052,0.32076 -0.11863,0.31169 -0.1153,0.32782 0.11816,0.5715 0.32121,0.33527 0.43612,0.31626 0.55857,-0.0924 z m 5.51041,-1.96973 c 0.0926,-0.14557 0.0814,-0.41925 -0.0613,-1.50084 -0.14057,-1.06583 -0.18733,-1.26625 -0.2954,-1.26625 -0.1169,0 -0.42315,0.43132 -0.47566,0.66993 -0.0265,0.12049 -0.16367,0.68437 -0.30478,1.25306 -0.14111,0.56869 -0.23566,1.08843 -0.21013,1.15498 0.0394,0.1026 0.1405,0.0958 0.66501,-0.0449 0.34022,-0.0913 0.64721,-0.21094 0.68222,-0.26598 z" /><path
         id="path230"
         style="fill:#000000"
         d="m 69.030596,121.16242 c 0.0256,-0.0667 -0.110156,-0.16098 -0.36249,-0.25167 -0.546187,-0.19628 -0.85416,-0.48428 -0.979008,-0.91549 -0.08714,-0.30098 -0.187329,-0.42084 -0.468446,-0.56041 -0.01542,-0.008 0.01654,-0.0972 0.07101,-0.19897 0.130256,-0.24338 -0.05,-1.23841 -0.269189,-1.48591 -0.213947,-0.24159 -0.193791,-0.41768 0.06978,-0.60968 0.129564,-0.0944 0.199091,-0.20483 0.164337,-0.26106 -0.103671,-0.16774 -0.294775,-0.10696 -0.42558,0.13536 -0.206881,0.38326 -0.937745,1.10817 -1.17809,1.1685 -0.389437,0.0977 -0.48834,0.004 -0.425811,-0.40435 0.07961,-0.51966 0.232881,-0.77614 0.681836,-1.14092 0.675436,-0.54881 1.128066,-0.97467 1.128066,-1.06135 0,-0.11177 -0.358924,-0.0155 -0.90469,0.24272 -0.244472,0.11565 -0.550503,0.21762 -0.680069,0.22659 -0.213866,0.0148 -0.237966,-0.0124 -0.261522,-0.29565 -0.02031,-0.24422 0.01186,-0.33219 0.148166,-0.40514 0.09576,-0.0513 0.174115,-0.1658 0.174115,-0.25454 0,-0.22675 0.151438,-0.29421 0.382658,-0.17047 0.174114,0.0932 0.263205,0.0686 0.761597,-0.21011 0.485178,-0.27133 0.556735,-0.3412 0.5097,-0.49771 -0.0301,-0.10014 -0.100221,-0.35352 -0.155837,-0.56307 l -0.101118,-0.381 h -0.487473 c -0.439928,0 -0.507338,-0.0248 -0.691159,-0.254 l -0.203687,-0.254 0.33199,-0.0592 c 0.182595,-0.0326 0.436466,-0.11024 0.564159,-0.17263 0.218073,-0.10653 0.231077,-0.14406 0.21417,-0.61813 -0.02134,-0.5985 -0.166909,-1.27822 -0.329255,-1.53746 -0.164834,-0.26322 -0.02374,-0.30575 0.403106,-0.12149 0.482319,0.2082 0.649956,0.4086 0.791891,0.94665 0.06448,0.24444 0.148331,0.47553 0.18633,0.51353 0.038,0.038 0.353726,-0.0997 0.701616,-0.30595 0.464515,-0.27543 0.650628,-0.43768 0.700675,-0.61085 0.03748,-0.1297 0.08875,-0.74626 0.113925,-1.37015 l 0.04578,-1.13435 -0.223816,-0.17846 c -0.154064,-0.12285 -0.206153,-0.22449 -0.167141,-0.32616 0.08704,-0.22681 0.288834,-0.17453 0.842891,0.21837 0.690983,0.49 0.802862,0.8041 0.563225,1.58127 -0.09333,0.30269 -0.190761,0.73079 -0.216512,0.95134 -0.04343,0.37197 -0.03188,0.40475 0.159593,0.45281 0.410262,0.10296 0.418084,0.25448 0.02653,0.51396 -0.250336,0.1659 -0.435151,0.38587 -0.593624,0.70656 -0.308654,0.6246 -0.303094,0.80656 0.02817,0.92204 0.145049,0.0506 0.294252,0.0731 0.331562,0.05 0.114019,-0.0705 0.505379,0.11688 0.505379,0.24194 0,0.10381 -0.766095,0.84631 -1.354667,1.31295 -0.287221,0.22772 -0.178191,0.29949 0.266621,0.17552 0.202608,-0.0565 0.673179,-0.10352 1.045713,-0.10454 0.770563,-0.002 1.38151,0.21851 1.622159,0.58579 0.211612,0.32296 0.04959,0.41326 -0.758848,0.42292 -0.381688,0.005 -0.798753,0.0376 -0.926811,0.0734 -0.200006,0.0559 -0.232834,0.0403 -0.232834,-0.11029 0,-0.13276 -0.07067,-0.18863 -0.290839,-0.22993 -0.159962,-0.03 -0.333471,-0.0282 -0.385575,0.004 -0.0521,0.0322 -0.37077,0.0557 -0.708146,0.0522 l -0.613411,-0.006 -0.503848,0.50941 c -0.410532,0.41506 -0.480326,0.5243 -0.376847,0.58985 0.223687,0.1417 0.378635,0.0913 0.935966,-0.30442 0.47622,-0.33813 0.589029,-0.38285 0.886002,-0.35127 0.187166,0.0199 0.520541,0.11592 0.740833,0.21337 0.346685,0.15335 0.400532,0.21066 0.400532,0.42626 0,0.13699 -0.05692,0.35821 -0.126478,0.49159 -0.06956,0.13338 -0.126713,0.30662 -0.127,0.38497 -2.87e-4,0.0784 -0.07672,0.16665 -0.169855,0.19621 -0.189338,0.0601 -0.219372,0.21243 -0.07111,0.36068 0.12569,0.12569 -0.141237,0.36007 -0.740708,0.65037 -0.236952,0.11475 -0.480678,0.26871 -0.541615,0.34213 -0.167086,0.20133 0.02167,0.53465 0.389879,0.6885 0.257027,0.10739 0.371632,0.11108 0.715291,0.023 0.41953,-0.10752 0.419762,-0.10749 1.433599,0.19388 0.39788,0.11827 0.677333,0.30195 0.677333,0.4452 0,0.0646 -0.121717,0.21994 -0.270482,0.34511 -0.213983,0.18006 -0.329255,0.21806 -0.55184,0.18194 -0.170274,-0.0276 -0.469846,0.0192 -0.758772,0.1186 -0.554418,0.19075 -1.145153,0.22218 -1.081988,0.0576 z m -0.0632,-3.88194 c 0.04612,-0.1817 0.05607,-0.34754 0.0221,-0.36853 -0.08885,-0.0549 -0.774458,0.29832 -0.822615,0.42381 -0.02228,0.0581 0.0029,0.26678 0.05594,0.46379 l 0.09645,0.3582 0.282131,-0.27345 c 0.156415,-0.1516 0.319497,-0.42066 0.365987,-0.60382 z m -0.514282,-3.88021 c 0.189702,-0.27996 0.338282,-0.81901 0.250064,-0.90723 -0.02612,-0.0261 -0.211668,0.0441 -0.41233,0.15606 -0.343939,0.19188 -0.36346,0.22272 -0.340768,0.53827 0.04631,0.64397 0.174255,0.69812 0.503034,0.2129 z m -6.223125,7.44204 c -0.23283,-0.0935 -0.54213,-0.76369 -0.545446,-1.18188 -0.0013,-0.16299 0.04294,-0.46779 0.09829,-0.67734 0.05738,-0.21721 0.115018,-1.19991 0.134085,-2.286 0.03038,-1.73051 0.0986,-2.44708 0.358673,-3.76766 0.09231,-0.46871 0.202523,-0.25019 0.181014,0.35888 -0.0169,0.47847 -0.01801,0.95105 -0.0061,2.56212 0.0033,0.44238 0.0057,1.01388 0.0054,1.27 -0.0019,1.50233 0.01701,1.6033 0.264008,1.41066 0.272567,-0.21259 1.1844,-1.48478 1.1844,-1.65248 0,-0.0419 0.06023,-0.1261 0.133847,-0.1872 0.119534,-0.0992 0.127377,-0.0754 0.07334,0.22247 -0.162978,0.89843 -0.753446,2.66212 -1.131023,3.37828 -0.09726,0.18447 -0.176832,0.38042 -0.176832,0.43544 0,0.055 -0.06027,0.12317 -0.133924,0.15144 -0.164557,0.0631 -0.198041,0.0603 -0.439762,-0.0367 z m 0.57893,-9.47661 c -0.102062,-0.064 -0.566912,-1.01624 -0.631565,-1.29377 -0.06392,-0.27441 -9e-6,-0.28852 0.287655,-0.0635 0.116416,0.0911 0.239127,0.16641 0.272691,0.16745 0.03356,10e-4 0.234943,0.12447 0.44751,0.2743 0.376382,0.2653 0.529927,0.53727 0.43823,0.77623 -0.04498,0.11723 -0.67724,0.22535 -0.814521,0.13929 z" /><path
         id="path228"
         style="fill:#000000"
         d="m 103.00536,121.03498 c -0.44489,-0.46422 -0.74624,-0.92635 -0.7467,-1.14509 -1.7e-4,-0.0833 -0.076,-0.29999 -0.16861,-0.48143 -0.3463,-0.6788 -0.0528,-1.03554 1.60487,-1.95048 1.46266,-0.80733 1.49486,-0.83658 1.31146,-1.19123 -0.28949,-0.55982 -0.0352,-0.73124 0.47971,-0.32341 l 0.35239,0.2791 0.53716,-0.18747 0.53716,-0.18747 0.40327,0.28335 c 0.64853,0.45566 0.68868,0.5882 0.41879,1.38242 -0.17414,0.51246 -0.22718,0.83175 -0.22718,1.36761 0,0.67343 0.008,0.70212 0.21829,0.78207 0.33435,0.12712 2.38392,-0.0274 2.72878,-0.20578 0.37665,-0.19477 0.44474,-0.42336 0.5014,-1.68321 l 0.0487,-1.08214 0.19877,0.18673 c 0.10932,0.1027 0.19876,0.23947 0.19876,0.30393 0,0.0645 0.11228,0.25785 0.24951,0.42975 0.17235,0.21589 0.28955,0.50615 0.37901,0.93867 0.0712,0.34437 0.19538,0.69893 0.2759,0.7879 0.11969,0.13225 0.12778,0.19159 0.0443,0.32522 -0.0561,0.0899 -0.10264,0.24969 -0.10333,0.35509 -0.002,0.32201 -0.19776,0.60476 -0.46527,0.67236 -0.13923,0.0352 -0.5389,0.1437 -0.88815,0.24117 -0.34925,0.0975 -1.03006,0.20689 -1.51292,0.24316 -1.16378,0.0874 -1.78654,-0.046 -2.23226,-0.47843 -0.47463,-0.46045 -0.52642,-0.70464 -0.51169,-2.41278 0.0138,-1.59732 0.011,-1.60717 -0.39113,-1.38432 -0.14762,0.0818 -0.24285,0.26001 -0.34906,0.65316 -0.21786,0.80648 -0.6145,1.83075 -0.93067,2.40333 -0.15428,0.2794 -0.33681,0.6223 -0.40563,0.762 -0.23263,0.47231 -0.52914,0.71967 -0.86264,0.71967 -0.25505,0 -0.37107,-0.0675 -0.69298,-0.40345 z m 1.16228,-1.17654 c 0.20308,-0.30136 0.59657,-1.43641 0.681,-1.96442 0.0481,-0.30097 0.0347,-0.35026 -0.0955,-0.35026 -0.25648,0 -2.24076,1.21579 -2.24076,1.37294 0,0.11882 0.81824,1.01802 1.03936,1.14221 0.26781,0.15041 0.41086,0.10385 0.61594,-0.20047 z m -0.66519,-4.20736 c -0.0483,-0.12581 -0.0295,-0.25764 0.12396,-0.87009 0.0711,-0.28385 0.11809,-0.3418 0.24924,-0.3075 0.0889,0.0232 0.22807,-0.009 0.30931,-0.0721 0.13782,-0.10671 0.13873,-0.10312 0.0135,0.0535 -0.18107,0.22647 -0.32023,0.6132 -0.34957,0.97151 -0.0253,0.3093 -0.25643,0.4592 -0.34643,0.22468 z m -2.23609,-0.63399 c -0.0482,-0.0306 -0.10386,-0.31551 -0.12371,-0.63311 -0.0349,-0.55863 -0.027,-0.58712 0.24424,-0.87467 0.15418,-0.16348 0.25798,-0.33339 0.23067,-0.37758 -0.0273,-0.0442 0.0644,-0.2103 0.2039,-0.36914 l 0.25356,-0.28879 0.12218,0.18401 c 0.11935,0.17976 0.12881,0.18062 0.40916,0.0374 0.32307,-0.16502 2.00197,-0.81175 2.67782,-1.03153 0.24393,-0.0793 0.46328,-0.17621 0.48744,-0.21531 0.11315,-0.18308 -0.39735,-0.98394 -0.56225,-0.88202 -0.0398,0.0246 -0.0724,-0.0412 -0.0724,-0.14623 0,-0.10502 -0.0928,-0.32634 -0.20632,-0.49183 -0.11347,-0.16548 -0.2319,-0.40566 -0.26318,-0.53372 -0.0468,-0.19179 -0.0287,-0.23283 0.10283,-0.23283 0.20595,0 1.47902,0.64528 1.60884,0.81547 0.0545,0.0715 0.22599,0.19773 0.381,0.28051 0.1881,0.10045 0.29054,0.22274 0.30802,0.36773 0.0144,0.11948 0.074,0.25689 0.13238,0.30536 0.10487,0.087 0.15125,0.0773 1.42367,-0.29748 0.5642,-0.1662 0.84357,-0.14657 1.39697,0.0982 0.49686,0.21974 0.78846,0.42862 0.78846,0.56479 0,0.042 -0.16764,0.15046 -0.37253,0.24109 -0.20489,0.0906 -0.64362,0.37424 -0.97495,0.63024 -0.33133,0.256 -0.67337,0.46545 -0.7601,0.46545 -0.0867,0 -0.20743,0.0599 -0.26823,0.13319 -0.0608,0.0733 -0.25596,0.20738 -0.4337,0.29806 -0.17774,0.0907 -0.32316,0.19506 -0.32316,0.23197 0,0.10232 0.46152,0.52212 0.57402,0.52212 0.12038,0 0.0448,0.49872 -0.0991,0.65427 -0.0529,0.0572 -0.21287,0.12728 -0.35548,0.15581 -0.22023,0.044 -0.28281,0.0156 -0.41543,-0.18861 -0.0859,-0.13226 -0.22586,-0.29026 -0.31108,-0.35111 -0.0852,-0.0608 -0.15493,-0.16192 -0.15493,-0.22462 0,-0.0627 -0.14287,-0.22901 -0.3175,-0.36961 l -0.3175,-0.25562 0.25267,-0.0967 c 0.19124,-0.0732 0.34083,-0.072 0.6152,0.005 0.33969,0.0951 0.37369,0.0888 0.53985,-0.10038 0.16032,-0.18252 0.70227,-0.95654 0.87588,-1.25094 0.0582,-0.0987 -0.059,-0.10824 -0.72609,-0.059 -1.04472,0.0772 -2.67638,0.55513 -3.68943,1.08074 -0.48549,0.25188 -0.70185,0.2923 -0.83766,0.15649 -0.0453,-0.0453 -0.22361,-0.0596 -0.39612,-0.0315 -0.27973,0.0454 -0.31988,0.084 -0.37108,0.35691 -0.0316,0.1683 -0.14669,0.47393 -0.25581,0.67916 -0.10913,0.20523 -0.19841,0.4175 -0.19841,0.4717 0,0.11706 -0.40861,0.50887 -0.60034,0.57565 -0.0741,0.0258 -0.17411,0.0219 -0.22231,-0.009 z" /><path
         id="path225"
         style="fill:#000000"
         d="m 83.377683,121.35361 c -0.11642,-0.0372 -0.33492,-0.0714 -0.48557,-0.0761 -0.150638,-0.005 -0.459652,-0.12274 -0.686693,-0.26244 -0.227042,-0.1397 -0.44774,-0.254 -0.49044,-0.254 -0.357397,0 -1.956003,-1.09613 -2.927117,-2.00706 -0.312482,-0.29311 -0.585428,-0.53294 -0.606546,-0.53294 -0.02112,0 -0.172073,0.23813 -0.335454,0.52917 -0.390137,0.69498 -0.808101,1.16815 -1.211065,1.37103 -0.179732,0.0905 -0.450431,0.25421 -0.601553,0.36383 -0.151121,0.10963 -0.558038,0.26079 -0.904258,0.33592 -0.585612,0.12708 -0.644659,0.12667 -0.847067,-0.006 -0.287278,-0.18823 -0.275507,-0.30799 0.03027,-0.30799 0.38859,0 1.355085,-0.553 1.893381,-1.08334 0.473177,-0.46619 0.991438,-1.24382 0.991438,-1.48761 0,-0.24798 -1.287152,-0.73105 -1.947883,-0.73105 -0.341274,0 -1.100117,-0.29602 -1.100117,-0.42916 0,-0.11289 0.428399,-0.16865 0.87123,-0.1134 0.555941,0.0694 1.129064,0.21383 1.86206,0.46936 0.501154,0.17471 0.58478,0.18403 0.656652,0.0732 0.147798,-0.2279 0.04535,-0.44799 -0.2977,-0.63952 -0.353319,-0.19726 -0.415105,-0.27058 -0.551084,-0.65397 l -0.08341,-0.23517 -0.418385,0.42059 c -0.326575,0.3283 -0.438265,0.39664 -0.508979,0.31144 -0.102525,-0.12354 -0.23273,-0.75198 -0.273491,-1.32003 -0.02341,-0.32626 -3.22e-4,-0.39292 0.160705,-0.46393 0.103425,-0.0456 0.22431,-0.17896 0.268634,-0.29633 0.253904,-0.67236 0.500727,-1.1934 0.535928,-1.13134 0.02223,0.0392 0.06547,0.17604 0.09608,0.3041 0.03061,0.12806 0.102552,0.23057 0.159873,0.22781 0.05732,-0.003 0.38997,-0.14564 0.73922,-0.3175 l 0.635,-0.31248 0.025,-1.10067 c 0.0265,-1.1666 -0.06103,-1.69578 -0.344915,-2.08507 -0.219159,-0.30054 -0.160378,-0.51692 0.165836,-0.61048 0.217628,-0.0624 0.315302,-0.0433 0.518871,0.10168 0.292151,0.20803 0.422978,0.64909 0.668936,2.25521 0.152181,0.99374 0.160182,1.01555 0.365262,0.99551 0.119436,-0.0117 0.342157,-0.16654 0.51751,-0.35984 0.16931,-0.18663 0.364096,-0.33934 0.432858,-0.33934 0.06876,0 0.268849,0.1143 0.444638,0.254 0.17579,0.1397 0.372066,0.254 0.436169,0.254 0.150498,0 0.616447,0.51105 0.619683,0.67966 0.0039,0.20353 -0.245424,0.50567 -0.417275,0.50567 -0.224172,0 -1.019577,0.94514 -1.019577,1.21151 0,0.26744 -0.357383,0.70267 -0.708633,0.86299 -0.638637,0.29148 -0.938676,0.52345 -0.993613,0.76822 -0.03057,0.13619 -0.115849,0.38587 -0.189512,0.55485 -0.124805,0.28629 -0.123596,0.31659 0.01775,0.4445 0.08342,0.0755 0.175374,0.13727 0.204336,0.13727 0.02896,0 0.544332,0.22522 1.145269,0.50048 1.751215,0.80217 2.538272,1.06338 3.993558,1.32542 0.87707,0.15792 1.70253,0.41532 2.2852,0.71258 0.20613,0.10515 0.52635,0.23508 0.71161,0.28872 0.18526,0.0536 0.35099,0.13998 0.36829,0.19187 0.0338,0.1014 -0.3958,0.28055 -0.68739,0.28664 -0.0978,0.002 -0.33026,0.0603 -0.51653,0.12952 -0.18626,0.0692 -0.75776,0.15989 -1.27,0.20156 -0.51223,0.0417 -0.98848,0.0938 -1.05833,0.11589 -0.0699,0.0221 -0.22225,0.01 -0.33867,-0.0275 z m -6.228824,-6.04656 c -0.07137,-0.28436 0.244352,-0.46651 0.464029,-0.2677 0.282968,0.25608 0.346124,0.16462 0.346124,-0.50126 0,-0.54934 -0.01999,-0.63463 -0.148167,-0.6323 -0.188159,0.003 -0.389198,0.15707 -0.515304,0.39384 -0.05544,0.10409 -0.197776,0.19659 -0.325737,0.21167 -0.25963,0.0306 -0.400402,0.37189 -0.316627,0.76763 0.04023,0.19002 0.09506,0.23283 0.298175,0.23283 0.220945,0 0.243118,-0.023 0.197507,-0.20471 z m 2.456828,-1.16745 c 0.443025,-0.48956 0.641399,-0.85532 0.526313,-0.97041 -0.02678,-0.0268 -0.283158,0.0216 -0.569741,0.1074 -0.590782,0.17697 -0.671914,0.29418 -0.671914,0.97068 0,0.56256 0.125974,0.5436 0.715342,-0.10767 z" /><path
         id="path222"
         style="fill:#000000"
         d="m 52.707705,122.8289 c -0.05293,-0.0529 -0.17818,-0.0768 -0.575685,-0.10967 -0.07186,-0.006 -0.167112,-0.13463 -0.211666,-0.28597 -0.06266,-0.21284 -0.13402,-0.28126 -0.31505,-0.30207 -0.174189,-0.02 -0.277186,-0.11148 -0.402749,-0.3576 -0.150909,-0.29581 -0.194617,-0.32551 -0.414318,-0.28157 -0.271288,0.0542 -0.367295,-0.0567 -0.456189,-0.52712 -0.03489,-0.18466 0.01151,-0.38233 0.157408,-0.67051 0.113789,-0.22476 0.206889,-0.46975 0.206889,-0.54441 0,-0.22897 0.583449,-1.03901 1.085973,-1.50773 l 0.476573,-0.44452 -0.309381,-0.25502 c -0.17016,-0.14026 -0.353238,-0.3879 -0.406839,-0.55031 -0.0536,-0.16242 -0.144415,-0.29531 -0.201807,-0.29531 -0.188197,0 -1.357967,0.6118 -1.642299,0.85894 -0.152962,0.13295 -0.324493,0.24173 -0.381181,0.24173 -0.09423,0 -0.50286,0.33941 -1.227315,1.01942 -0.210559,0.19765 -0.341843,0.25451 -0.541525,0.23457 -0.226628,-0.0226 -0.277403,-0.0738 -0.362146,-0.36499 -0.12029,-0.41332 -0.06873,-1.07602 0.09091,-1.16837 0.06437,-0.0372 0.117039,-0.18012 0.117039,-0.3175 0,-0.23988 0.01523,-0.2498 0.383822,-0.2498 0.409384,0 0.684109,-0.20125 1.125419,-0.82443 l 0.194108,-0.2741 -0.237841,0.11879 c -0.130813,0.0653 -0.333092,0.15956 -0.449508,0.2094 -0.116417,0.0498 -0.31133,0.17097 -0.433139,0.26919 -0.205091,0.16538 -0.239603,0.16921 -0.466575,0.0518 -0.230311,-0.1191 -1.087822,-0.97877 -1.031317,-1.03392 0.01432,-0.014 0.268431,-0.1069 0.564697,-0.20652 0.296267,-0.0996 1.427336,-0.6201 2.513487,-1.15665 l 1.97482,-0.97553 0.04803,-0.43853 c 0.02642,-0.2412 0.03835,-0.57051 0.02651,-0.7318 -0.02805,-0.38221 0.201493,-0.44366 0.519423,-0.13907 0.261326,0.25037 0.856224,0.39 1.66158,0.39 0.570199,0 0.772302,0.12037 0.681654,0.40598 -0.04915,0.15487 -0.792583,0.69469 -0.956715,0.69469 -0.237957,0 -0.347577,0.3181 -0.371013,1.07661 -0.01326,0.42916 -0.0069,0.79711 0.01405,0.81768 0.02099,0.0206 0.666813,-0.0362 1.435163,-0.12625 1.943439,-0.22764 3.622725,-0.17246 4.237888,0.13927 0.233776,0.11846 0.404056,0.24935 0.3784,0.29086 -0.02566,0.0415 -0.18899,0.12206 -0.362967,0.17899 -0.173976,0.0569 -0.868771,0.32635 -1.543987,0.5987 -1.345397,0.54266 -1.756652,0.63546 -1.218315,0.27491 0.367077,-0.24585 0.710305,-0.54528 0.710333,-0.6197 1.8e-5,-0.0474 -1.205683,0.0108 -2.921018,0.14098 l -0.846667,0.0643 v 0.56611 c 0,0.33938 -0.04239,0.60896 -0.105833,0.6731 -0.219208,0.22161 -0.06782,0.41179 0.327797,0.41179 0.216064,0 0.75666,0.2776 0.930506,0.47783 0.07506,0.0864 0.198217,0.34297 0.273684,0.57007 0.110029,0.33109 0.11919,0.48447 0.04624,0.77418 -0.06019,0.23904 -0.06292,0.41446 -0.0081,0.51843 0.105935,0.20084 0.0052,1.27405 -0.14532,1.54749 -0.159912,0.2906 -0.985741,1.10711 -1.121143,1.10849 -0.06225,6.4e-4 -0.190355,0.0219 -0.284673,0.0472 -0.09432,0.0253 -0.197886,0.0197 -0.230153,-0.0126 z m 0.341882,-1.94081 c 0.02096,-0.21369 -0.01935,-0.2762 -0.254,-0.39391 -0.71383,-0.35809 -1.252576,-0.41956 -1.252576,-0.14291 0,0.11417 0.456165,0.49232 0.804334,0.66677 0.460349,0.23065 0.670697,0.19173 0.702242,-0.12995 z m -0.956242,-1.41655 c 0.232833,-0.009 0.528108,0.0148 0.656166,0.053 0.198889,0.0594 0.232834,0.0452 0.232834,-0.0977 0,-0.092 -0.08128,-0.36281 -0.180622,-0.60185 -0.159829,-0.38459 -0.209493,-0.43462 -0.43143,-0.43462 -0.315869,0 -0.646146,0.23269 -0.947506,0.66755 -0.254245,0.36688 -0.231113,0.54406 0.06191,0.47426 0.101921,-0.0243 0.375811,-0.0516 0.608645,-0.0607 z m 0.235723,-9.23233 c -0.339196,-0.25954 -1.632726,-1.79027 -1.632726,-1.93214 0,-0.2211 0.765075,-0.44649 0.880677,-0.25944 0.0242,0.0392 0.290517,0.13793 0.591811,0.21948 0.301294,0.0816 0.672142,0.24002 0.824108,0.35214 0.151966,0.11211 0.326993,0.20384 0.388948,0.20384 0.12388,0 0.236829,0.2459 0.322355,0.70179 0.04897,0.26104 0.01805,0.33813 -0.25832,0.64404 -0.387941,0.42941 -0.627782,0.4445 -1.116853,0.0703 z" /><path
         id="path219"
         style="fill:#000000"
         d="m 117.83723,124.14899 c -0.11449,-0.21392 -0.11526,-1.05757 -0.002,-1.82156 0.10714,-0.72063 0.10919,-5.64068 0.002,-5.74748 -0.0837,-0.0837 -0.59463,0.12863 -0.92296,0.38365 -0.11106,0.0863 -0.27656,0.15683 -0.36778,0.15683 -0.1505,0 -0.16043,-0.0395 -0.10725,-0.42617 0.0322,-0.23438 0.13392,-0.62491 0.22595,-0.86783 0.2785,-0.73504 0.31861,-0.91146 0.27066,-1.19029 -0.0864,-0.50239 -0.10304,-0.5203 -0.30871,-0.3323 -0.40184,0.36731 -0.72059,0.46714 -1.15719,0.3624 -0.22611,-0.0542 -0.52424,-0.20809 -0.68138,-0.35161 -0.27321,-0.24954 -0.27583,-0.25855 -0.11888,-0.40824 0.17182,-0.16386 0.85998,-0.4646 1.68449,-0.73614 0.71111,-0.2342 0.75362,-0.34342 0.75828,-1.94825 0.002,-0.70625 0.0277,-1.30808 0.057,-1.33741 0.0786,-0.0786 0.14479,0.56167 0.15532,1.50233 0.009,0.83239 0.094,1.24617 0.25495,1.24617 0.0477,0 0.16578,-0.079 0.26236,-0.17559 0.16549,-0.16549 0.17273,-0.23979 0.12586,-1.29117 -0.0859,-1.92754 -0.19973,-2.6819 -0.40452,-2.6819 -0.0495,0 -0.14055,0.0667 -0.20241,0.14816 -0.0993,0.13089 -0.11279,0.10733 -0.11516,-0.20192 -0.002,-0.28035 0.0389,-0.37734 0.20599,-0.48684 0.34392,-0.22534 0.66979,-0.17131 1.09021,0.18076 0.20852,0.17463 0.43571,0.4318 0.50487,0.5715 0.31478,0.63587 0.33859,0.71369 0.25168,0.82262 -0.0477,0.0598 -0.11383,0.29564 -0.14694,0.5241 -0.0331,0.22846 -0.11629,0.4715 -0.18488,0.54009 -0.0712,0.0712 -0.0998,0.18352 -0.0667,0.26194 0.0319,0.0755 0.0712,0.32363 0.0874,0.55143 0.0162,0.2278 0.0499,0.43464 0.0749,0.45965 0.025,0.025 0.14978,-0.0316 0.27727,-0.12572 0.39223,-0.28972 0.79158,-0.31744 1.14247,-0.0793 0.16669,0.11312 0.43002,0.26635 0.58519,0.34053 0.40346,0.19287 0.93731,0.72097 0.87994,0.87047 -0.0261,0.068 -0.0475,0.17449 -0.0475,0.23654 0,0.062 -0.13335,0.25012 -0.29633,0.41795 -0.16299,0.16782 -0.29634,0.35412 -0.29634,0.41399 0,0.13585 -0.52223,0.65007 -0.66019,0.65007 -0.056,0 -0.18677,0.0857 -0.29062,0.1905 -0.10385,0.10477 -0.47532,0.38443 -0.8255,0.62145 l -0.63669,0.43095 -0.0123,1.38938 c -0.0408,4.59791 -0.0661,5.07237 -0.30674,5.74972 -0.12407,0.34925 -0.26643,0.79692 -0.31636,0.99483 -0.0982,0.38945 -0.27378,0.46915 -0.42225,0.19173 z m 0.01,-8.87006 c 0.0535,-0.3322 0.0495,-1.4485 -0.005,-1.53746 -0.15967,-0.25836 -0.23663,0.0232 -0.21152,0.77397 0.0144,0.43156 0.0287,0.79418 0.0318,0.80582 0.0137,0.0518 0.17598,0.0147 0.18515,-0.0423 z m 1.50596,-1.22864 c 0.37525,-0.49701 0.61079,-1.18676 0.45757,-1.33997 -0.0677,-0.0677 -0.20053,-0.0456 -0.48671,0.081 -0.36883,0.16315 -0.39354,0.19429 -0.39259,0.49477 5.6e-4,0.17636 -0.0205,0.52069 -0.0469,0.76516 -0.031,0.28776 -0.0161,0.4445 0.0422,0.4445 0.0496,0 0.24145,-0.20046 0.42643,-0.44547 z m -2.22632,-4.56574 c -0.0297,-0.14843 -0.0154,-0.30845 0.0318,-0.3556 0.0579,-0.0579 0.0857,0.0299 0.0857,0.26988 0,0.42398 -0.0435,0.45571 -0.11747,0.0857 z" /></g><text
       xml:space="preserve"
       style="font-style:normal;font-variant:normal;font-weight:normal;font-stretch:normal;font-size:26.4313px;font-family:Montserrat;-inkscape-font-specification:'Montserrat, @wght=400';font-variant-ligatures:normal;font-variant-caps:normal;font-variant-numeric:normal;font-variant-east-asian:normal;font-variation-settings:'wght' 400;fill:#000000;stroke:#000000;stroke-width:1.1;stroke-dasharray:none;stroke-opacity:1"
       x="6.6253271"
       y="197.05609"
       id="text1"><tspan
         id="tspan1"
         style="font-style:normal;font-variant:normal;font-weight:normal;font-stretch:normal;font-size:26.4313px;font-family:Montserrat;-inkscape-font-specification:'Montserrat, @wght=400';font-variant-ligatures:normal;font-variant-caps:normal;font-variant-numeric:normal;font-variant-east-asian:normal;font-variation-settings:'wght' 400;fill:#000000;stroke:#000000;stroke-width:1.1;stroke-dasharray:none;stroke-opacity:1"
         x="6.6253271"
         y="197.05609">Hong Kong History Centre</tspan></text></g></svg>
